<?xml version="1.0" encoding="UTF-8" standalone="no"?>
<svg width="160px" height="88px" viewBox="0 0 160 88" version="1.1" xmlns="http://www.w3.org/2000/svg" xmlns:xlink="http://www.w3.org/1999/xlink">
    <!-- Generator: Sketch 39.1 (31720) - http://www.bohemiancoding.com/sketch -->
    <title>logo</title>
    <desc>Created with Sketch.</desc>
    <defs>
        <linearGradient x1="0%" y1="100%" x2="100%" y2="100%" id="linearGradient-1">
            <stop stop-color="#FFCE00" offset="0%"></stop>
            <stop stop-color="#FE0062" offset="100%"></stop>
        </linearGradient>
    </defs>
    <g id="Page-1" stroke="none" stroke-width="1" fill="none" fill-rule="evenodd">
        <g id="Desktop-HD" transform="translate(-195.000000, -260.000000)">
            <g id="logo" transform="translate(195.000000, 260.000000)">
                <polygon id="Fill-13" fill="url(#linearGradient-1)" points="0 86.4716939 160 86.4716939 160 81.4716939 0 81.4716939"></polygon>
                <path d="M0.261001742,61.7432247 C0.261001742,61.4561228 0.341651281,61.0006747 0.440048938,60.7307989 L18.9800467,9.93933786 C19.0784444,9.66946205 18.9239313,9.44891558 18.6368294,9.44891558 L1.7672428,9.44891558 C1.48014088,9.44891558 1.24523931,9.21401401 1.24523931,8.9269121 L1.24523931,0.521872984 C1.24523931,0.234771067 1.48014088,-0.000130500871 1.7672428,-0.000130500871 L29.5623624,-0.000130500871 C29.8494643,-0.000130500871 30.0843658,0.234771067 30.0843658,0.521872984 L30.0843658,7.45042524 C30.0843658,7.73752716 30.0034553,8.1929752 29.9047966,8.46259 L10.9719913,60.140674 C10.8733326,60.4102888 11.0273236,60.6308353 11.3144255,60.6308353 L29.5623624,60.6308353 C29.8494643,60.6308353 30.0843658,60.8657368 30.0843658,61.1528388 L30.0843658,69.5576169 C30.0843658,69.8447188 29.8494643,70.0796204 29.5623624,70.0796204 L0.783005227,70.0796204 C0.495903311,70.0796204 0.261001742,69.8447188 0.261001742,69.5576169 L0.261001742,61.7432247 Z M108.551068,49.8992005 C108.263966,49.8992005 108.029065,50.1341021 108.029065,50.421204 L108.029065,55.8536943 C108.029065,56.1407962 108.065866,56.6074673 108.111019,56.8911762 C108.111019,56.8911762 108.451627,59.0360885 109.296228,59.848587 C110.141091,60.6626514 111.282191,61.0687701 112.722398,61.0687701 C114.536621,61.0687701 115.740622,60.5378926 116.335967,59.4732665 C116.929746,58.4099454 117.299325,56.7906905 117.299325,56.7906905 C117.363009,56.5108967 117.650111,56.2817371 117.937213,56.2817371 L126.467533,56.2817371 C126.754635,56.2817371 126.9697,56.5158557 126.945427,56.8019136 C126.945427,56.8019136 126.660935,60.1625721 126.003994,61.9133717 C125.346792,63.6662594 124.392047,65.1678025 123.141066,66.4190448 C121.888518,67.7331886 120.386714,68.7654505 118.635654,69.5166135 C116.883027,70.2675155 114.911942,70.642836 112.722398,70.642836 C109.780387,70.642836 107.245799,70.0179978 105.119156,68.7654505 C102.991209,67.5147301 100.548755,64.2104481 100.548755,64.2104481 C100.37806,63.9797225 100.145507,63.5749088 100.031972,63.3112971 C100.031972,63.3112971 99.0798372,61.1011343 98.8305805,59.4732665 C98.5797578,57.8467036 98.4724861,54.6447342 98.4724861,54.6447342 C98.4630901,54.3576323 98.454999,53.8880902 98.454999,53.6009882 L98.454999,38.9697526 C98.454999,38.6826507 98.4630901,38.2131085 98.4724861,37.9260066 C98.4724861,37.9260066 98.5797578,34.7256032 98.8305805,33.0974744 C99.0798372,31.4711725 100.031972,29.2594437 100.031972,29.2594437 C100.145507,28.995571 100.37806,28.5910183 100.549016,28.3602927 C100.549016,28.3602927 102.991209,25.0575767 105.119156,23.8050293 C107.245799,22.554309 109.780387,21.9279048 112.722398,21.9279048 C114.911942,21.9279048 116.899209,22.3032253 118.682634,23.0543883 C120.466059,23.8050293 121.967602,24.8537343 123.188046,26.1986763 C124.408229,27.5449233 125.346792,29.1245058 126.003994,30.938729 C126.660935,32.7542571 126.946732,36.2378473 126.946732,36.2378473 C126.970222,36.5241662 126.989536,36.9931864 126.989536,37.2802883 L126.989536,49.377197 C126.989536,49.664299 126.754635,49.8992005 126.467533,49.8992005 L108.551068,49.8992005 Z M32.7451481,38.4477491 C32.7451481,36.5090281 32.8699069,34.7256032 33.1207296,33.0974744 C33.3699863,31.4711725 33.8392674,30.0325309 34.528573,28.7799835 C35.6547955,26.7149378 37.2813584,25.0575767 39.4093056,23.8050293 C41.5359478,22.554309 44.0705357,21.9279048 47.0125474,21.9279048 C49.952993,21.9279048 52.4873199,22.554309 54.6152671,23.8050293 C56.7419093,25.0575767 58.3697772,26.7149378 59.4962607,28.7799835 C60.1840003,30.0325309 60.6532814,31.4711725 60.9041041,33.0974744 C61.1533608,34.7256032 61.2796856,36.5090281 61.2796856,38.4477491 L61.2796856,54.1229917 C61.2796856,56.0632787 61.1533608,57.8467036 60.9041041,59.4732665 C60.6532814,61.1011343 60.1840003,62.5397759 59.4962607,63.7907573 C58.3697772,65.8560641 56.7419093,67.5147301 54.6152671,68.7654505 C52.4873199,70.0179978 49.952993,70.642836 47.0125474,70.642836 C44.0705357,70.642836 41.5359478,70.0179978 39.4093056,68.7654505 C37.2813584,67.5147301 35.6547955,65.8560641 34.528573,63.7907573 C33.8392674,62.5397759 33.3699863,61.1011343 33.1207296,59.4732665 C32.8699069,57.8467036 32.7451481,56.0632787 32.7451481,54.1229917 L32.7451481,38.4477491 Z M42.319214,55.6247958 C42.319214,57.4403239 42.7417758,58.801448 43.5863775,59.707907 C44.4312401,60.6156711 45.5723397,61.0687701 47.0125474,61.0687701 C48.450928,61.0687701 49.5935936,60.6156711 50.4384562,59.707907 C51.2833189,58.801448 51.7053587,57.4403239 51.7053587,55.6247958 L51.7053587,36.9459451 C51.7053587,35.1319829 51.2833189,33.7705979 50.4384562,32.8630948 C49.5935936,31.9566357 48.450928,31.5019707 47.0125474,31.5019707 C45.5723397,31.5019707 44.4312401,31.9566357 43.5863775,32.8630948 C42.7417758,33.7705979 42.319214,35.1319829 42.319214,36.9459451 L42.319214,55.6247958 Z M150.071147,35.8196964 C149.784045,35.8196964 149.502424,35.5894929 149.445265,35.308133 C149.445265,35.308133 148.970242,32.9729504 148.00062,32.159147 C147.030216,31.3466486 145.919393,30.9387029 144.668933,30.9387029 C143.167129,30.9387029 142.008542,31.4241661 141.195783,32.3935266 C140.38198,33.364453 139.975861,34.4747545 139.975861,35.7257358 C139.975861,36.6029627 140.193797,37.4621804 140.63228,38.307043 C141.069719,39.1516447 143.543755,40.3754819 143.543755,40.3754819 C143.801102,40.5025897 144.229928,40.693904 144.496411,40.8006537 L149.158946,42.6655111 C149.42569,42.7722609 149.85034,42.9711442 150.10299,43.1076481 C150.10299,43.1076481 155.665459,46.1138662 157.011445,48.49107 C158.356387,50.8701009 159.029771,53.4660242 159.029771,56.281711 C159.029771,58.2851604 158.668806,60.1463638 157.950268,61.8666263 C157.230164,63.5884548 156.244361,65.1048749 154.993901,66.4190187 C153.740832,67.7331625 152.239028,68.7654244 150.488228,69.5165874 C148.73534,70.2674894 146.827679,70.6428099 144.762633,70.6428099 C142.885508,70.6428099 141.102083,70.3290858 139.412358,69.7042477 C137.722633,69.0794095 136.235706,68.1716454 134.953926,66.9822605 C133.670581,65.7941806 132.621876,64.3069926 131.809377,62.5235677 C130.995313,60.7401428 130.553437,56.8005825 130.553437,56.8005825 C130.521595,56.5153076 130.730135,56.281711 131.017237,56.281711 L138.984054,56.281711 C139.270895,56.281711 139.563478,56.5095656 139.633949,56.7877934 C139.633949,56.7877934 140.146817,58.816299 140.867182,59.9425215 C141.585459,61.068744 142.853144,61.6319858 144.668933,61.6319858 C146.044412,61.6319858 147.280517,61.1788867 148.376202,60.2711227 C149.470843,59.3646636 150.018947,58.0975002 150.018947,56.4693713 C150.018947,55.1554885 149.674164,54.029005 148.986424,53.0907037 C148.296857,52.1518805 145.700412,50.879758 145.700412,50.879758 C145.442542,50.7534331 145.011107,50.5689049 144.741492,50.4699852 L141.122181,49.1404424 C140.852566,49.0415227 140.424001,48.8517744 140.169263,48.7189246 C140.169263,48.7189246 135.266084,46.1605855 133.545822,43.9389386 C131.823993,41.7183358 130.964776,39.0109647 130.964776,35.8196964 C130.964776,33.8178131 131.340096,31.9566096 132.090998,30.2347812 C132.842161,28.5142577 133.858241,27.0432518 135.141587,25.8233297 C136.423366,24.6028856 137.910815,23.6497072 139.60054,22.9604016 C141.289222,22.272401 143.104228,21.9278787 145.044254,21.9278787 C146.983497,21.9278787 148.78206,22.2885831 150.441248,23.0073819 C152.098609,23.7274857 153.522895,24.6968462 154.712019,25.9170293 C155.90036,27.1372125 156.8384,28.6082183 157.527967,30.3284808 C158.215968,32.0505703 158.512988,35.299781 158.512988,35.299781 C158.539349,35.5858389 158.325849,35.8196964 158.038747,35.8196964 L150.071147,35.8196964 Z M74.8362466,69.1499844 C75.1233485,69.1499844 75.3582501,68.9150828 75.3582501,68.6279809 L75.3582501,37.4541937 C75.3582501,37.1670918 75.3893093,36.6993767 75.4271546,36.4148848 C75.4271546,36.4148848 75.7808119,33.7571041 76.6254136,32.84934 C77.4702762,31.943142 78.6113758,31.4882159 80.0515834,31.4882159 C81.489964,31.4882159 82.6326297,31.943142 83.4774923,32.84934 C84.3223549,33.7571041 84.6757513,36.4148848 84.6757513,36.4148848 C84.7135966,36.6993767 84.7443948,37.1670918 84.7443948,37.4541937 L84.7443948,68.6279809 C84.7443948,68.9150828 84.9792963,69.1499844 85.2663983,69.1499844 L93.7967182,69.1499844 C94.0838201,69.1499844 94.3187217,68.9150828 94.3187217,68.6279809 L94.3187217,38.9562588 C94.3187217,38.6691569 94.3106306,38.1993537 94.3009736,37.9125128 C94.3009736,37.9125128 94.1923968,34.7121094 93.9431402,33.0839806 C93.6923175,31.4576787 93.2230364,30.0187761 92.5352968,28.7662287 C91.4088133,26.701444 89.7809454,25.0440829 87.6543032,23.7915355 C85.526356,22.5405542 82.9920291,21.914411 80.0515834,21.914411 C77.1095718,21.914411 74.5749839,22.5405542 72.4483417,23.7915355 C70.3203945,25.0440829 68.6938316,26.701444 67.5676091,28.7662287 C66.8783035,30.0187761 66.4090224,31.4576787 66.1597657,33.0839806 C65.908943,34.7121094 65.8016713,37.9125128 65.8016713,37.9125128 C65.7922752,38.1993537 65.7841842,38.6691569 65.7841842,38.9562588 L65.7841842,68.6279809 C65.7841842,68.9150828 66.0190858,69.1499844 66.3061877,69.1499844 L74.8362466,69.1499844 Z M108.029065,41.8681769 C108.029065,42.1552788 108.263966,42.3901804 108.551068,42.3901804 L116.893206,42.3901804 C117.180308,42.3901804 117.41521,42.1552788 117.41521,41.8681769 L117.41521,37.4679485 C117.41521,37.1808466 117.384411,36.7131315 117.346566,36.4283786 C117.346566,36.4283786 116.99317,33.7705979 116.148307,32.8630948 C115.303444,31.9566357 114.160779,31.5019707 112.722398,31.5019707 C111.282191,31.5019707 110.141091,31.9566357 109.296228,32.8630948 C108.451627,33.7705979 108.097969,36.4283786 108.097969,36.4283786 C108.060124,36.7131315 108.029065,37.1808466 108.029065,37.4679485 L108.029065,41.8681769 Z" id="Combined-Shape" fill="#FFFFFF"></path>
            </g>
        </g>
    </g>
</svg>