<?xml version="1.0" encoding="UTF-8"?>
<svg width="329px" height="137px" viewBox="0 0 329 137" version="1.1" xmlns="http://www.w3.org/2000/svg" xmlns:xlink="http://www.w3.org/1999/xlink">
    <!-- Generator: Sketch 45 (43475) - http://www.bohemiancoding.com/sketch -->
    <title>Artboard 7</title>
    <desc>Created with Sketch.</desc>
    <defs></defs>
    <g id="Welcome" stroke="none" stroke-width="1" fill="none" fill-rule="evenodd">
        <g id="Artboard-7" fill="#FFFFFF">
            <path d="M22,58 L22,22 L46,22 L46,10 L10,10 L10,70 L46,70 L46,58 L22,58 Z M70,58 L70,10 L58,10 L58,70 L94,70 L94,10 L82,10 L82,58 L70,58 Z M130,34 L130,22 L118,22 L118,34 L130,34 L130,46 L142,46 L142,70 L106,70 L106,10 L142,10 L142,34 L130,34 Z M130,58 L130,46 L118,46 L118,58 L130,58 Z M166,58 L166,46 L190,46 L190,34 L166,34 L166,22 L190,22 L190,10 L154,10 L154,70 L190,70 L190,58 L166,58 Z" id="Cube"></path>
            <path d="M10,125 L10,95 L28,95 L28,113 L16,113 L16,125 L10,125 Z M16,107 L22,107 L22,101 L16,101 L16,107 Z M40,119 L40,113 L52,113 L52,107 L40,107 L40,101 L52,101 L52,95 L34,95 L34,125 L52,125 L52,119 L40,119 Z M70,107 L70,113 L76,113 L76,125 L70,125 L70,113 L64,113 L64,125 L58,125 L58,95 L76,95 L76,107 L70,107 Z M70,107 L70,101 L64,101 L64,107 L70,107 Z M82.12,125 L88.12,125 L88.12,95 L82.12,95 L82.12,125 Z M94.12,125 L94.12,95 L112.12,95 L112.12,125 L94.12,125 Z M100.12,119 L106.12,119 L106.12,101 L100.12,101 L100.12,119 Z M130.12,119 L136.12,119 L136.12,101 L130.12,101 L130.12,95 L118.12,95 L118.12,125 L130.12,125 L130.12,119 L124.12,119 L124.12,101 L130.12,101 L130.12,119 Z M154.24,101 L160.24,101 L160.24,125 L166.24,125 L166.24,101 L172.24,101 L172.24,95 L154.24,95 L154.24,101 Z M190.24,107 L190.24,113 L196.24,113 L196.24,125 L190.24,125 L190.24,113 L184.24,113 L184.24,125 L178.24,125 L178.24,95 L196.24,95 L196.24,107 L190.24,107 Z M190.24,107 L190.24,101 L184.24,101 L184.24,107 L190.24,107 Z M214.24,125 L214.24,113 L208.24,113 L208.24,125 L202.24,125 L202.24,95 L220.24,95 L220.24,125 L214.24,125 Z M208.24,101 L208.24,107 L214.24,107 L214.24,101 L208.24,101 Z M232.24,119 L232.24,101 L244.24,101 L244.24,95 L226.24,95 L226.24,125 L244.24,125 L244.24,119 L232.24,119 Z M262.24,113 L268.24,113 L268.24,125 L262.24,125 L262.24,113 L256.24,113 L256.24,125 L250.24,125 L250.24,95 L256.24,95 L256.24,107 L262.24,107 L262.24,113 Z M268.24,95 L268.24,107 L262.24,107 L262.24,95 L268.24,95 Z M280.24,119 L280.24,113 L292.24,113 L292.24,107 L280.24,107 L280.24,101 L292.24,101 L292.24,95 L274.24,95 L274.24,125 L292.24,125 L292.24,119 L280.24,119 Z M310.24,107 L310.24,113 L316.24,113 L316.24,125 L310.24,125 L310.24,113 L304.24,113 L304.24,125 L298.24,125 L298.24,95 L316.24,95 L316.24,107 L310.24,107 Z M310.24,107 L310.24,101 L304.24,101 L304.24,107 L310.24,107 Z" id="PERIOD-TRACKER"></path>
        </g>
    </g>
</svg>