<?xml version="1.0" encoding="UTF-8"?>
<svg width="329px" height="137px" viewBox="0 0 329 137" version="1.1" xmlns="http://www.w3.org/2000/svg" xmlns:xlink="http://www.w3.org/1999/xlink">
    <!-- Generator: Sketch 45.1 (43504) - http://www.bohemiancoding.com/sketch -->
    <title>logo_cube</title>
    <desc>Created with Sketch.</desc>
    <defs></defs>
    <g id="Welcome" stroke="none" stroke-width="1" fill="none" fill-rule="evenodd">
        <g id="logo_cube" fill="#FFFFFF">
            <path d="M116,64 L116,22 L144,22 L144,8 L102,8 L102,78 L144,78 L144,64 L116,64 Z M172,64 L172,8 L158,8 L158,78 L200,78 L200,8 L186,8 L186,64 L172,64 Z M242,36 L242,22 L228,22 L228,36 L242,36 L242,50 L256,50 L256,78 L214,78 L214,8 L256,8 L256,36 L242,36 Z M242,64 L242,50 L228,50 L228,64 L242,64 Z M284,64 L284,50 L312,50 L312,36 L284,36 L284,22 L312,22 L312,8 L270,8 L270,78 L312,78 L312,64 L284,64 Z" id="Cube"></path>
            <path d="M16,127 L16,97 L34,97 L34,115 L22,115 L22,127 L16,127 Z M22,109 L28,109 L28,103 L22,103 L22,109 Z M46,121 L46,115 L58,115 L58,109 L46,109 L46,103 L58,103 L58,97 L40,97 L40,127 L58,127 L58,121 L46,121 Z M76,109 L76,115 L82,115 L82,127 L76,127 L76,115 L70,115 L70,127 L64,127 L64,97 L82,97 L82,109 L76,109 Z M76,109 L76,103 L70,103 L70,109 L76,109 Z M88.12,127 L94.12,127 L94.12,97 L88.12,97 L88.12,127 Z M100.12,127 L100.12,97 L118.12,97 L118.12,127 L100.12,127 Z M106.12,121 L112.12,121 L112.12,103 L106.12,103 L106.12,121 Z M136.12,121 L142.12,121 L142.12,103 L136.12,103 L136.12,97 L124.12,97 L124.12,127 L136.12,127 L136.12,121 L130.12,121 L130.12,103 L136.12,103 L136.12,121 Z M151.24,103 L157.24,103 L157.24,127 L163.24,127 L163.24,103 L169.24,103 L169.24,97 L151.24,97 L151.24,103 Z M187.24,109 L187.24,115 L193.24,115 L193.24,127 L187.24,127 L187.24,115 L181.24,115 L181.24,127 L175.24,127 L175.24,97 L193.24,97 L193.24,109 L187.24,109 Z M187.24,109 L187.24,103 L181.24,103 L181.24,109 L187.24,109 Z M211.24,127 L211.24,115 L205.24,115 L205.24,127 L199.24,127 L199.24,97 L217.24,97 L217.24,127 L211.24,127 Z M205.24,103 L205.24,109 L211.24,109 L211.24,103 L205.24,103 Z M229.24,121 L229.24,103 L241.24,103 L241.24,97 L223.24,97 L223.24,127 L241.24,127 L241.24,121 L229.24,121 Z M259.24,115 L265.24,115 L265.24,127 L259.24,127 L259.24,115 L253.24,115 L253.24,127 L247.24,127 L247.24,97 L253.24,97 L253.24,109 L259.24,109 L259.24,115 Z M265.24,97 L265.24,109 L259.24,109 L259.24,97 L265.24,97 Z M277.24,121 L277.24,115 L289.24,115 L289.24,109 L277.24,109 L277.24,103 L289.24,103 L289.24,97 L271.24,97 L271.24,127 L289.24,127 L289.24,121 L277.24,121 Z M307.24,109 L307.24,115 L313.24,115 L313.24,127 L307.24,127 L307.24,115 L301.24,115 L301.24,127 L295.24,127 L295.24,97 L313.24,97 L313.24,109 L307.24,109 Z M307.24,109 L307.24,103 L301.24,103 L301.24,109 L307.24,109 Z" id="PERIOD-TRACKER"></path>
            <path d="M54.0991027,3.82079214 L82.8835913,20.2390796 C84.8098934,21.3378166 86,23.3742792 86,25.5817126 L86,58.4182874 C86,60.6257208 84.8098934,62.6621834 82.8835913,63.7609204 L54.0991027,80.1792079 C52.1804225,81.2735974 49.8195775,81.2735974 47.9008973,80.1792079 L19.1164087,63.7609204 C17.1901066,62.6621834 16,60.6257208 16,58.4182874 L16,25.5817126 C16,23.3742792 17.1901066,21.3378166 19.1164087,20.2390796 L47.9008973,3.82079214 C49.8195775,2.72640262 52.1804225,2.72640262 54.0991027,3.82079214 Z M51,10.9405405 L23.7777778,26.4677321 L23.7777778,57.4824543 L51,73.0096459 L78.2222222,57.4824543 L78.2222222,26.4677321 L51,10.9405405 Z M28.8664404,36.2039499 L33.1795717,38.6267466 C33.2683428,38.6766116 33.3232323,38.7701056 33.3232323,38.8714454 L33.3232323,48.0635376 C33.3232323,48.2187743 33.1966058,48.3446186 33.040404,48.3446186 C32.9916344,48.3446186 32.9436934,48.3320855 32.9012363,48.3082363 L28.588105,45.8854396 C28.499334,45.8355746 28.4444444,45.7420806 28.4444444,45.6407408 L28.4444444,36.4486486 C28.4444444,36.2934119 28.571071,36.1675676 28.7272727,36.1675676 C28.7760424,36.1675676 28.8239834,36.1801007 28.8664404,36.2039499 Z M41.381592,43.4417877 L45.6947233,45.8645845 C45.7834943,45.9144494 45.8383838,46.0079434 45.8383838,46.1092832 L45.8383838,55.3013754 C45.8383838,55.4566122 45.7117573,55.5824565 45.5555556,55.5824565 C45.5067859,55.5824565 45.4588449,55.5699234 45.4163878,55.5460741 L41.1032565,53.1232774 C41.0144855,53.0734125 40.959596,52.9799184 40.959596,52.8785787 L40.959596,43.6864865 C40.959596,43.5312497 41.0862225,43.4054054 41.2424242,43.4054054 C41.2911939,43.4054054 41.3391349,43.4179385 41.381592,43.4417877 Z" id="Combined-Shape" fill-rule="nonzero"></path>
        </g>
    </g>
</svg>