<?xml version="1.0" encoding="UTF-8" standalone="no"?>
<svg width="246px" height="83px" viewBox="0 0 246 83" version="1.1" xmlns="http://www.w3.org/2000/svg" xmlns:xlink="http://www.w3.org/1999/xlink" xmlns:sketch="http://www.bohemiancoding.com/sketch/ns">
    <!-- Generator: Sketch 3.3.3 (12072) - http://www.bohemiancoding.com/sketch -->
    <title>appname</title>
    <desc>Created with Sketch.</desc>
    <defs></defs>
    <g id="Web" stroke="none" stroke-width="1" fill="none" fill-rule="evenodd" sketch:type="MSPage">
        <g id="OnePath" sketch:type="MSArtboardGroup" transform="translate(-597.000000, -161.000000)">
            <g id="appname" sketch:type="MSLayerGroup" transform="translate(597.000000, 161.000000)">
                <path d="M64.5365854,10.4235677 C64.5365854,4.66652915 69.1223047,0 74.7804878,0 C80.4382908,0 85.0243902,4.66616586 85.0243902,10.42362 L85.0243902,14.1463415 L85.0243902,17.8690629 C85.0243902,20.3366338 86.9894427,22.3363286 89.4146341,22.3363286 C91.8396608,22.3363286 93.804878,20.3368016 93.804878,17.8690629 L93.804878,14.1463415 L93.804878,10.42362 C93.804878,4.66655729 98.3905928,0 104.04878,0 C109.706584,0 114.292683,4.66616586 114.292683,10.42362 L114.292683,14.1463415 L114.292683,17.8690629 C114.292683,20.3366338 116.257735,22.3363286 118.682927,22.3363286 C121.10811,22.3363286 123.073171,20.3370453 123.073171,17.8690629 L123.073171,14.1463415 L123.073171,10.4235677 C123.073171,4.66652915 127.65889,0 133.317073,0 C138.974876,0 143.560976,4.66616586 143.560976,10.42362 L143.560976,14.1463415 L143.560976,17.8690629 C143.560976,20.3366338 145.526028,22.3363286 147.95122,22.3363286 C150.376246,22.3363286 152.341463,20.3368016 152.341463,17.8690629 L152.341463,14.1463415 L152.341463,10.42362 C152.341463,4.66655729 156.927178,0 162.585366,0 C168.243169,0 172.829268,4.66616586 172.829268,10.42362 L172.829268,14.1463415 L172.829268,17.8690629 C172.829268,20.3366338 174.794321,22.3363286 177.219512,22.3363286 C179.644695,22.3363286 181.609756,20.3370453 181.609756,17.8691153 L181.609756,14.1463415 L181.609756,10.42362 C181.609756,4.66652915 186.195475,0 191.853659,0 C197.511462,0 202.097561,4.66616586 202.097561,10.42362 L202.097561,14.1463415 L202.097561,17.8690629 C202.097561,20.3366338 204.062613,22.3363286 206.487805,22.3363286 C208.912831,22.3363286 210.878049,20.3368016 210.878049,17.8690629 L210.878049,14.1463415 L210.878049,10.42362 C210.878049,4.66655729 215.463764,0 221.121951,0 C226.779754,0 231.365854,4.66616586 231.365854,10.42362 L231.365854,14.1463415 L231.365854,17.8690629 C231.365854,20.3366338 233.330906,22.3363286 235.756098,22.3363286 C238.181281,22.3363286 240.146341,20.3370453 240.146341,17.8691153 L240.146341,4.52931108 C240.146341,2.88450926 241.456728,1.55113393 243.073171,1.55113393 C244.689614,1.55113393 246,2.88450926 246,4.52931108 L246,17.8691153 C246,23.6268172 241.414002,28.2926829 235.756098,28.2926829 C230.09791,28.2926829 225.512195,23.6261256 225.512195,17.8690629 L225.512195,14.1463415 L225.512195,10.42362 C225.512195,7.95588136 223.546978,5.9563543 221.121951,5.9563543 C218.69676,5.9563543 216.731707,7.95604909 216.731707,10.42362 L216.731707,14.1463415 L216.731707,17.8690629 C216.731707,23.6265171 212.145608,28.2926829 206.487805,28.2926829 C200.829617,28.2926829 196.243902,23.6261256 196.243902,17.8690629 L196.243902,14.1463415 L196.243902,10.42362 C196.243902,7.95588136 194.278685,5.9563543 191.853659,5.9563543 C189.428462,5.9563543 187.463415,7.95603033 187.463415,10.4235677 L187.463415,14.1463415 L187.463415,17.8690629 L187.463415,17.8691153 C187.463415,23.6268172 182.877416,28.2926829 177.219512,28.2926829 C171.561324,28.2926829 166.97561,23.6261256 166.97561,17.8690629 L166.97561,14.1463415 L166.97561,10.42362 C166.97561,7.95588136 165.010392,5.9563543 162.585366,5.9563543 C160.160174,5.9563543 158.195122,7.95604909 158.195122,10.42362 L158.195122,14.1463415 L158.195122,17.8690629 C158.195122,23.6265171 153.609023,28.2926829 147.95122,28.2926829 C142.293032,28.2926829 137.707317,23.6261256 137.707317,17.8690629 L137.707317,14.1463415 L137.707317,10.42362 C137.707317,7.95588136 135.7421,5.9563543 133.317073,5.9563543 C130.891877,5.9563543 128.926829,7.95603033 128.926829,10.4235677 L128.926829,10.42362 L128.926829,14.1463415 L128.926829,17.8691153 C128.926829,23.6268172 124.340831,28.2926829 118.682927,28.2926829 C113.024739,28.2926829 108.439024,23.6261256 108.439024,17.8690629 L108.439024,14.1463415 L108.439024,10.42362 C108.439024,7.95588136 106.473807,5.9563543 104.04878,5.9563543 C101.623589,5.9563543 99.6585366,7.95604909 99.6585366,10.42362 L99.6585366,14.1463415 L99.6585366,17.8690629 C99.6585366,23.6265171 95.0724372,28.2926829 89.4146341,28.2926829 C83.7564464,28.2926829 79.1707317,23.6261256 79.1707317,17.8690629 L79.1707317,14.1463415 L79.1707317,10.42362 C79.1707317,7.95588136 77.2055144,5.9563543 74.7804878,5.9563543 C72.3552917,5.9563543 70.3902439,7.95603033 70.3902439,10.4235677 L70.3902439,14.1463415 L70.3902439,17.8690629 C70.3902439,23.6268172 65.8042457,28.2926829 60.1463415,28.2926829 C54.4881538,28.2926829 49.902439,23.6261256 49.902439,17.8690629 L49.902439,14.1463415 L49.902439,10.42362 C49.902439,7.95588136 47.9372217,5.9563543 45.5121951,5.9563543 C43.0870037,5.9563543 41.1219512,7.95604909 41.1219512,10.42362 L41.1219512,14.1463415 L41.1219512,17.8690629 C41.1219512,23.6265171 36.5358518,28.2926829 30.8780488,28.2926829 C25.2198611,28.2926829 20.6341463,23.6261256 20.6341463,17.8690629 L20.6341463,14.1463415 L20.6341463,10.42362 C20.6341463,7.95588136 18.668929,5.9563543 16.2439024,5.9563543 C13.8187064,5.9563543 11.8536585,7.95603033 11.8536585,10.4235677 L11.8536585,20.2633718 C11.8536585,21.9081737 10.5432724,23.241549 8.92682927,23.241549 C7.3103861,23.241549 6,21.9081737 6,20.2633718 L6,10.4235677 C6,4.66652915 10.5857193,0 16.2439024,0 C21.9017055,0 26.4878049,4.66616586 26.4878049,10.42362 L26.4878049,14.1463415 L26.4878049,17.8690629 C26.4878049,20.3366338 28.4528573,22.3363286 30.8780488,22.3363286 C33.3030754,22.3363286 35.2682927,20.3368016 35.2682927,17.8690629 L35.2682927,14.1463415 L35.2682927,10.42362 C35.2682927,4.66655729 39.8540074,0 45.5121951,0 C51.1699982,0 55.7560976,4.66616586 55.7560976,10.42362 L55.7560976,14.1463415 L55.7560976,17.8690629 C55.7560976,20.3366338 57.72115,22.3363286 60.1463415,22.3363286 C62.5715246,22.3363286 64.5365854,20.3370453 64.5365854,17.8691153 L64.5365854,14.1463415 L64.5365854,10.42362 Z" id="Shape" opacity="0.5" fill="#E0EAEB" sketch:type="MSShapeGroup"></path>
                <path d="M34.158125,64.9 L34.158125,59.235 C34.158125,45.815 26.403125,41.085 17.273125,41.085 C8.143125,41.085 0.388125,45.815 0.388125,59.235 L0.388125,64.9 C0.388125,78.32 8.143125,82.995 17.273125,82.995 C26.403125,82.995 34.158125,78.32 34.158125,64.9 L34.158125,64.9 Z M22.828125,64.9 C22.828125,70.785 21.123125,73.15 17.273125,73.15 C13.423125,73.15 11.718125,70.785 11.718125,64.9 L11.718125,59.235 C11.718125,53.35 13.423125,50.93 17.273125,50.93 C21.123125,50.93 22.828125,53.35 22.828125,59.235 L22.828125,64.9 Z M70.874375,81.4 L70.874375,57.09 C70.874375,43.615 63.834375,41.085 52.724375,41.085 C50.359375,41.085 43.759375,41.58 40.954375,42.02 C38.424375,42.405 37.599375,43.065 37.599375,46.035 L37.599375,81.4 C37.599375,82.005 38.094375,82.5 38.699375,82.5 L47.719375,82.5 C48.324375,82.5 48.819375,82.005 48.819375,81.4 L48.819375,50.93 C50.414375,50.71 52.339375,50.655 54.044375,50.655 C57.729375,50.655 59.654375,51.865 59.654375,57.09 L59.654375,81.4 C59.654375,82.005 60.094375,82.5 60.699375,82.5 L69.774375,82.5 C70.379375,82.5 70.874375,82.005 70.874375,81.4 L70.874375,81.4 Z M101.490625,81.235 L101.490625,74.525 C101.490625,73.92 100.995625,73.425 100.390625,73.425 L89.280625,73.425 C87.300625,73.425 86.640625,72.82 86.640625,70.675 L86.640625,66.11 L100.170625,66.11 C100.775625,66.11 101.270625,65.615 101.270625,65.01 L101.270625,58.52 C101.270625,57.915 100.775625,57.42 100.170625,57.42 L86.640625,57.42 L86.640625,53.405 C86.640625,51.26 87.300625,50.655 89.280625,50.655 L100.390625,50.655 C100.995625,50.655 101.490625,50.16 101.490625,49.555 L101.490625,42.845 C101.490625,42.185 101.105625,41.855 100.390625,41.745 C98.300625,41.47 94.890625,41.085 89.555625,41.085 C82.515625,41.085 75.475625,42.79 75.475625,53.405 L75.475625,70.675 C75.475625,81.345 82.515625,82.995 89.555625,82.995 C94.890625,82.995 98.300625,82.61 100.390625,82.335 C101.105625,82.225 101.490625,81.895 101.490625,81.235 L101.490625,81.235 Z M140.216875,55.33 L140.216875,54.89 C140.216875,43.945 131.251875,41.085 123.056875,41.085 C119.151875,41.085 114.201875,41.36 111.451875,41.8 C109.141875,42.185 108.261875,42.79 108.261875,45.43 L108.261875,81.51 C108.261875,82.115 108.811875,82.5 109.416875,82.5 L118.216875,82.5 C118.821875,82.5 119.316875,82.005 119.316875,81.4 L119.316875,69.025 C120.801875,69.08 122.011875,69.19 123.221875,69.19 C131.141875,69.19 140.216875,66.165 140.216875,55.33 L140.216875,55.33 Z M128.606875,55.33 C128.606875,58.41 126.571875,59.895 122.721875,59.895 C122.391875,59.895 119.091875,59.895 118.816875,59.84 L118.816875,50.49 C119.146875,50.49 122.336875,50.435 122.721875,50.435 C126.406875,50.435 128.606875,51.7 128.606875,54.89 L128.606875,55.33 Z M175.008125,81.4 L175.008125,53.625 C175.008125,43.01 168.078125,41.14 160.928125,41.14 L156.693125,41.14 C149.543125,41.14 142.613125,43.065 142.613125,53.625 L142.613125,81.4 C142.613125,82.005 143.108125,82.5 143.713125,82.5 L152.733125,82.5 C153.338125,82.5 153.778125,82.005 153.778125,81.4 L153.778125,69.19 L163.843125,69.19 L163.843125,81.4 C163.843125,82.005 164.283125,82.5 164.888125,82.5 L173.853125,82.5 C174.458125,82.5 175.008125,82.005 175.008125,81.4 L175.008125,81.4 Z M164.343125,60.115 L154.278125,60.115 L154.278125,53.625 C154.278125,51.425 154.993125,50.765 157.193125,50.765 L161.428125,50.765 C163.683125,50.765 164.343125,51.425 164.343125,53.625 L164.343125,60.115 Z M207.284375,42.68 C207.284375,42.075 206.734375,41.635 206.129375,41.635 L178.409375,41.635 C177.804375,41.635 177.309375,42.075 177.309375,42.68 L177.309375,49.72 C177.309375,50.325 177.804375,50.765 178.409375,50.765 L186.769375,50.765 L186.769375,81.4 C186.769375,82.005 187.264375,82.5 187.869375,82.5 L196.834375,82.5 C197.439375,82.5 197.934375,82.005 197.934375,81.4 L197.934375,50.765 L206.129375,50.765 C206.734375,50.765 207.284375,50.325 207.284375,49.72 L207.284375,42.68 Z M244.340625,81.4 L244.340625,42.68 C244.340625,42.075 243.845625,41.635 243.240625,41.635 L234.275625,41.635 C233.670625,41.635 233.175625,42.075 233.175625,42.68 L233.175625,56.76 L221.680625,56.76 L221.680625,42.68 C221.680625,42.075 221.185625,41.635 220.580625,41.635 L211.615625,41.635 C211.010625,41.635 210.460625,42.075 210.460625,42.68 L210.460625,81.4 C210.460625,82.005 211.010625,82.5 211.615625,82.5 L220.580625,82.5 C221.185625,82.5 221.680625,82.005 221.680625,81.4 L221.680625,66.44 L233.175625,66.44 L233.175625,81.4 C233.175625,82.005 233.670625,82.5 234.275625,82.5 L243.240625,82.5 C243.845625,82.5 244.340625,82.005 244.340625,81.4 L244.340625,81.4 Z" id="Oval-3" fill="#F6FFFF" sketch:type="MSShapeGroup"></path>
                <path d="M8.5,29.5 C13.1944204,29.5 17,25.6944204 17,21 C17,16.3055796 13.1944204,12.5 8.5,12.5 C3.80557963,12.5 0,16.3055796 0,21 C0,25.6944204 3.80557963,29.5 8.5,29.5 Z" id="Path" opacity="0.800000012" fill="#FBC464" sketch:type="MSShapeGroup"></path>
            </g>
        </g>
    </g>
</svg>