<?xml version="1.0" encoding="UTF-8" standalone="no"?>
<svg width="120px" height="50px" viewBox="0 0 120 50" version="1.1" xmlns="http://www.w3.org/2000/svg" xmlns:xlink="http://www.w3.org/1999/xlink">
    <!-- Generator: Sketch 3.6.1 (26313) - http://www.bohemiancoding.com/sketch -->
    <title>logo_nav</title>
    <desc>Created with Sketch.</desc>
    <defs>
        <path id="path-1" d="M0,0.0100679245 L0,10.2277283 L3.2686676,10.2277283 L3.2686676,0.0100679245 L1.34647138e-21,0.0100679245 L0,0.0100679245 Z"></path>
        <path id="path-3" d="M11.4906311,28.1257862 L22.9811231,28.1257862 L22.9811231,5.03144654e-05 L0.000139092873,5.03144654e-05 L0.000139092873,28.1257862 L11.4906311,28.1257862 L11.4906311,28.1257862 Z"></path>
        <path id="path-5" d="M2.87576501,0.00563522013 L0.00309978402,0.00563522013 L0.00309978402,2.91521006 L2.87576501,2.91521006 L2.87576501,0.00563522013 L2.87576501,0.00563522013 Z"></path>
    </defs>
    <g id="Welcome" stroke="none" stroke-width="1" fill="none" fill-rule="evenodd">
        <g id="Artboard-6">
            <g id="Group">
                <rect id="Rectangle-327" fill="#D8D8D8" opacity="0" x="0" y="0" width="120" height="50"></rect>
                <path d="M41,43.2910156 L41,24.6152344 L53.6875,24.6152344 L53.6875,28.5390625 L45.8125,28.5390625 L45.8125,32.3125 L52.6210938,32.3125 L52.6210938,36.2636719 L45.8125,36.2636719 L45.8125,43.2910156 L41,43.2910156 Z M57.625,43.2910156 L57.625,24 L62.4375,24 L62.4375,43.2910156 L57.625,43.2910156 Z M65.8417969,39.1757812 C65.8417969,38.8932278 65.8759762,38.6038426 65.9443359,38.3076172 C66.0126957,38.0113917 66.1721993,37.6536479 66.4228516,37.234375 C66.6735039,36.8151021 67.0039042,36.4459651 67.4140625,36.1269531 C67.8242208,35.8079411 68.4348918,35.536785 69.2460938,35.3134766 C70.0572957,35.0901682 71.0052029,34.9785156 72.0898438,34.9785156 C72.6640654,34.9785156 73.083332,34.9876301 73.3476562,35.0058594 C73.3476562,34.2402305 73.1608092,33.693361 72.7871094,33.3652344 C72.4134096,33.0371077 71.975914,32.8730469 71.4746094,32.8730469 C70.0709565,32.8730469 68.653653,33.1647106 67.2226562,33.7480469 L67.2226562,30.0976562 C68.8450602,29.4505176 70.3762949,29.1269531 71.8164062,29.1269531 C73.8671978,29.1269531 75.4531194,29.6487578 76.5742188,30.6923828 C77.6953181,31.7360078 78.2558594,33.2376204 78.2558594,35.1972656 L78.2558594,38.5058594 C78.2558594,40.2376389 77.7887417,41.499996 76.8544922,42.2929688 C75.9202427,43.0859415 74.250012,43.4824219 71.84375,43.4824219 C67.8515425,43.4824219 65.8509115,42.0468894 65.8417969,39.1757812 L65.8417969,39.1757812 Z M70.6679688,38.3417969 C70.6679688,39.3261768 71.1145789,39.8183594 72.0078125,39.8183594 L72.0351562,39.8183594 C72.4817731,39.8183594 72.8281238,39.6406268 73.0742188,39.2851562 C73.3203137,38.9296857 73.4433594,38.5559915 73.4433594,38.1640625 L73.4433594,36.9882812 C72.9967426,36.9518227 72.6868498,36.9335938 72.5136719,36.9335938 C71.283197,36.9335938 70.6679688,37.4029901 70.6679688,38.3417969 L70.6679688,38.3417969 Z M81.0996094,33.8027344 C81.0996094,32.289706 81.6236927,31.1321655 82.671875,30.3300781 C83.7200573,29.5279908 85.0553304,29.1269531 86.6777344,29.1269531 C88.0996165,29.1269531 89.4348896,29.5097618 90.6835938,30.2753906 L90.6835938,33.4609375 C89.4713481,32.786455 88.395838,32.4492188 87.4570312,32.4492188 C86.4453074,32.4492188 85.9394531,32.768226 85.9394531,33.40625 C85.9394531,33.5885426 86.1468078,33.773111 86.5615234,33.9599609 C86.9762391,34.1468108 87.4775361,34.3587228 88.0654297,34.5957031 C88.6533233,34.8326835 89.2366508,35.1129541 89.8154297,35.4365234 C90.3942086,35.7600928 90.8886698,36.2408822 91.2988281,36.8789062 C91.7089864,37.5169303 91.9140625,38.2643186 91.9140625,39.1210938 C91.9140625,40.4062564 91.3990937,41.454423 90.3691406,42.265625 C89.3391876,43.076827 88.0039145,43.4824219 86.3632812,43.4824219 C84.6315018,43.4824219 83.0546946,43.0266973 81.6328125,42.1152344 L81.6328125,38.3964844 C83.0911531,39.535813 84.4993422,40.1054688 85.8574219,40.1054688 C86.6959677,40.1054688 87.1152344,39.850263 87.1152344,39.3398438 C87.1152344,39.0937488 86.9101583,38.875001 86.5,38.6835938 C86.0898417,38.4921865 85.5908233,38.2871105 85.0029297,38.0683594 C84.4150361,37.8496083 83.8225941,37.5875666 83.2255859,37.2822266 C82.6285777,36.9768865 82.1250021,36.5257191 81.7148438,35.9287109 C81.3046854,35.3317027 81.0996094,34.623051 81.0996094,33.8027344 L81.0996094,33.8027344 Z M94.9492188,43.2910156 L94.9492188,24.0820312 L99.7617188,24.0820312 L99.7617188,32.7089844 L102.701172,29.3183594 L108.867188,29.3183594 L103.179688,35.484375 L109.482422,43.2910156 L103.658203,43.2910156 L100.240234,38.7792969 L99.7617188,39.2851562 L99.7617188,43.2910156 L94.9492188,43.2910156 Z" id="Flask" fill="#FFFFFF"></path>
                <g id="mark" transform="translate(9.000000, 5.000000)">
                    <path d="M7.66046544,13.516644 C7.66046544,13.2893736 7.70596868,13.0726692 7.78823218,12.8755371 C7.70596868,13.0726692 7.66046544,13.2893736 7.66046544,13.516644 L7.66046544,17.3800906 C7.10250432,17.579839 6.56441361,17.8219019 6.04996868,18.1026063 C6.56456263,17.8219019 7.10265335,17.579839 7.66046544,17.3800906 L7.66046544,13.516644 Z" id="Fill-1" fill="#FFFFFF"></path>
                    <path id="Fill-3" fill="#FFFFFF" d="M11.4905715,39.9943648 L11.4907205,39.9943648 C10.8957011,39.9943648 10.311213,39.9485786 9.74073348,39.8602264 C10.311213,39.9485786 10.8957011,39.9943648 11.4905715,39.9943648"></path>
                    <path d="M6.01351641,38.5896553 C5.36236307,38.2313157 4.74911253,37.8111396 4.18161361,37.3367748 C4.74901317,37.8111396 5.36236307,38.2313157 6.01351641,38.5896553" id="Fill-5" fill="#FFFFFF"></path>
                    <g id="Group-9" transform="translate(0.000000, 26.258516)">
                        <mask id="mask-2" fill="white">
                            <use xlink:href="#path-1"></use>
                        </mask>
                        <g id="Clip-8"></g>
                        <path d="M0.184432181,0.0100679245 C0.0633220302,0.687401258 -1.49028078e-05,1.38501132 -1.49028078e-05,2.09761509 C-1.49028078e-05,5.26113711 1.24630691,8.13001761 3.2686676,10.2277283 C1.24640626,8.13001761 0.00013412527,5.26113711 0.00013412527,2.09761509 C0.00013412527,1.38501132 0.0633220302,0.687401258 0.184432181,0.0100679245" id="Fill-7" fill="#FFFFFF" mask="url(#mask-2)"></path>
                    </g>
                    <g id="Group-12" transform="translate(0.000000, 11.868579)">
                        <mask id="mask-4" fill="white">
                            <use xlink:href="#path-3"></use>
                        </mask>
                        <g id="Clip-11"></g>
                        <path d="M11.4907006,25.8813585 C6.37660346,25.8813585 2.21608726,21.6672201 2.21608726,16.4875472 C2.21608726,12.5121509 4.70078272,8.95154717 8.39881512,7.62767296 L9.87642851,7.09866667 L9.87642851,5.51149686 L9.87642851,2.24447799 L13.1048734,2.24447799 L13.1048734,5.51149686 L13.1048734,7.09866667 L14.5823378,7.62767296 C18.2805192,8.95154717 20.7652147,12.5121509 20.7652147,16.4875472 C20.7652147,21.6672201 16.6046488,25.8813585 11.4907006,25.8813585 M22.1034371,12.0181132 C21.8772125,11.467673 21.6104523,10.938566 21.3069317,10.4347673 C20.851651,9.67904403 20.3138086,8.97992453 19.7058238,8.35044025 C18.4900527,7.09142138 16.9944069,6.11059119 15.3208216,5.51149686 L15.3208216,1.64805031 C15.3208216,0.965383648 14.910597,0.379773585 14.3268043,0.129610063 C14.1321737,0.0461383648 13.918368,5.03144654e-05 13.6939814,5.03144654e-05 L9.28732052,5.03144654e-05 C8.6135149,5.03144654e-05 8.03523629,0.415647799 7.78824708,1.00699371 C7.70593391,1.20407547 7.66048035,1.42077987 7.66048035,1.64805031 L7.66048035,5.51149686 C7.10266825,5.7112956 6.56457754,5.95330818 6.04993391,6.23401258 C5.53533996,6.51471698 5.04439179,6.83386164 4.58076544,7.18802516 C3.8852514,7.71899371 3.25118661,8.32815094 2.6913378,9.00256604 C1.85161425,10.0143396 1.17870281,11.1729811 0.715871274,12.4348679 C0.48443067,13.0659119 0.3055473,13.7227673 0.184437149,14.4 C0.0633269978,15.0773333 0.000139092873,15.7749434 0.000139092873,16.4875472 C0.000139092873,19.6510692 1.24641123,22.5199497 3.26862289,24.6176604 C3.55758834,24.9173333 3.86240043,25.2013585 4.18161857,25.4681761 C4.74911749,25.9425409 5.36236803,26.3627673 6.01352138,26.7210566 C6.66482376,27.0793962 7.35402894,27.3757987 8.07368553,27.6025157 C8.61341555,27.7725283 9.1700851,27.9033459 9.74071361,27.9916478 C10.3112428,28.08 10.8956812,28.1257862 11.4907006,28.1257862 C12.6805905,28.1257862 13.8281564,27.9425409 14.9076164,27.6025157 C19.584962,26.1290063 22.9811629,21.7098365 22.9811629,16.4875472 C22.9811629,14.9038994 22.668949,13.3942138 22.1034371,12.0181132" id="Fill-10" fill="#FFFFFF" mask="url(#mask-4)"></path>
                    </g>
                    <path d="M4.46632181,27.405434 C4.4257365,27.7165786 4.40477322,28.033761 4.40477322,28.3561258 C4.40477322,32.3197987 7.57718359,35.5329811 11.4905616,35.5329811 C15.4039892,35.5329811 18.5763996,32.3197987 18.5763996,28.3561258 C18.5763996,28.033761 18.5553866,27.7165786 18.5148013,27.405434 C16.5726177,28.0014591 14.1360583,28.3561258 11.4905616,28.3561258 C8.84521382,28.3561258 6.40865443,28.0014591 4.46632181,27.405434" id="Fill-13" fill="#FFFFFF"></path>
                    <path d="M9.57552095,8.53698113 C9.57552095,9.34045283 10.2186268,9.99172327 11.0119032,9.99172327 C11.8051797,9.99172327 12.4481862,9.34045283 12.4481862,8.53698113 C12.4481862,7.73350943 11.8051797,7.08213836 11.0119032,7.08213836 C10.2186268,7.08213836 9.57552095,7.73350943 9.57552095,8.53698113" id="Fill-15" fill="#FFFFFF"></path>
                    <path d="M13.5014868,6.85016352 C14.8764199,6.85016352 15.9910505,5.72120755 15.9910505,4.32860377 C15.9910505,2.93594969 14.8764199,1.80699371 13.5014868,1.80699371 C12.1265538,1.80699371 11.0119231,2.93594969 11.0119231,4.32860377 C11.0119231,5.72120755 12.1265538,6.85016352 13.5014868,6.85016352" id="Fill-17" fill="#FFFFFF"></path>
                    <g id="Group-21" transform="translate(7.848812, 0.044679)">
                        <mask id="mask-6" fill="white">
                            <use xlink:href="#path-5"></use>
                        </mask>
                        <g id="Clip-20"></g>
                        <path d="M1.43938272,2.91521006 C2.23265918,2.91521006 2.87576501,2.26383899 2.87576501,1.4603673 C2.87576501,0.656895597 2.23265918,0.00562515723 1.43938272,0.00562515723 C0.646106263,0.00562515723 0.00309978402,0.656895597 0.00309978402,1.4603673 C0.00309978402,2.26383899 0.646106263,2.91521006 1.43938272,2.91521006" id="Fill-19" fill="#FFFFFF" mask="url(#mask-6)"></path>
                    </g>
                </g>
            </g>
        </g>
    </g>
</svg>